<svg width="100" height="100" viewBox="0 0 100 100" fill="none" xmlns="http://www.w3.org/2000/svg">
<rect width="100" height="100" fill="#E5E5E5"/>
<path fill-rule="evenodd" clip-rule="evenodd" d="M32.1483 36.0343C31.868 36.252 31.6345 36.5302 31.4632 36.8506C31.2919 37.171 31.1868 37.5263 31.1547 37.893C31.1255 38.2673 31.173 38.6438 31.2941 38.9968C31.4152 39.3497 31.6069 39.6707 31.8561 39.9376L48.2221 57.2237C48.7685 57.7913 49.5029 58.1093 50.2679 58.1093C51.0329 58.1093 51.7674 57.7913 52.3137 57.2237L68.6798 39.8757C68.9067 39.6097 69.0765 39.2947 69.1774 38.9524C69.2783 38.6101 69.308 38.2486 69.2643 37.893C69.2643 37.1495 68.8551 36.468 68.3291 36.0343L68.2122 36.0343C67.7156 35.6603 67.1121 35.4806 66.5045 35.5258C65.8968 35.571 65.3229 35.8383 64.8805 36.2821L53.1904 48.6736L53.1904 5.05564C53.1904 3.32083 51.8461 1.95777 50.2679 1.95777C48.6897 1.95777 47.3454 3.32083 47.3454 5.05564L47.3454 48.8595L35.5384 36.3441C35.0708 35.9104 34.4863 35.6006 33.7849 35.5387C33.142 35.4767 32.5575 35.6626 32.0314 36.0343L32.0314 35.9724" fill="black"/>
<path fill-rule="evenodd" clip-rule="evenodd" d="M82.3099 11.6413H73.5424C72.7673 11.6413 72.0239 11.9677 71.4759 12.5486C70.9278 13.1296 70.6199 13.9176 70.6199 14.7392C70.6199 15.5608 70.9278 16.3487 71.4759 16.9297C72.0239 17.5106 72.7673 17.837 73.5424 17.837H82.8944C85.817 17.837 88.155 20.3153 88.155 23.4132V86.6097C88.155 89.7075 85.817 92.1858 82.8944 92.1858H17.4301C16.0349 92.1858 14.6969 91.5984 13.7103 90.5526C12.7238 89.5069 12.1695 88.0886 12.1695 86.6097V23.4132C12.1695 20.3153 14.5076 17.837 17.4301 17.837H26.7821C27.553 17.8254 28.2883 17.4914 28.8279 16.9077C29.3785 16.3357 29.6937 15.5563 29.7046 14.7392C29.6937 13.922 29.3785 13.1426 28.8279 12.5707C28.2883 11.987 27.553 11.6529 26.7821 11.6413H18.0146C14.9142 11.6413 11.9408 12.9468 9.74845 15.2707C7.55614 17.5945 6.32451 20.7463 6.32451 24.0328V85.9901C6.32451 92.8054 11.585 98.3816 18.0146 98.3816H82.3099C85.4103 98.3816 88.3837 97.076 90.5761 94.7522C92.7684 92.4283 94 89.2765 94 85.9901V24.0328C94 20.7463 92.7684 17.5945 90.5761 15.2707C88.3837 12.9468 85.4103 11.6413 82.3099 11.6413" fill="black"/>
</svg>
