<svg width="75" height="78" viewBox="0 0 75 78" fill="none" xmlns="http://www.w3.org/2000/svg">
<path fill-rule="evenodd" clip-rule="evenodd" d="M22.0904 27.6854C21.8506 27.861 21.6509 28.0855 21.5044 28.3441C21.3578 28.6027 21.2679 28.8894 21.2404 29.1854C21.2154 29.4874 21.2561 29.7913 21.3597 30.0761C21.4633 30.3609 21.6272 30.6199 21.8404 30.8354L35.8404 44.7854C36.3077 45.2434 36.936 45.5 37.5904 45.5C38.2448 45.5 38.8731 45.2434 39.3404 44.7854L53.3404 30.7854C53.5345 30.5707 53.6798 30.3165 53.7661 30.0403C53.8524 29.764 53.8778 29.4723 53.8404 29.1854C53.8404 28.5854 53.4904 28.0354 53.0404 27.6854L52.9404 27.6854C52.5157 27.3835 51.9993 27.2385 51.4796 27.275C50.9598 27.3114 50.4688 27.5272 50.0904 27.8854L40.0904 37.8854L40.0904 2.68536C40.0904 1.28536 38.9404 0.185365 37.5904 0.185365C36.2404 0.185365 35.0904 1.28536 35.0904 2.68536L35.0904 38.0354L24.9904 27.9354C24.5904 27.5854 24.0904 27.3354 23.4904 27.2854C22.9404 27.2354 22.4404 27.3854 21.9904 27.6854L21.9904 27.6354" fill="black"/>
<path fill-rule="evenodd" clip-rule="evenodd" d="M65 8H57.5C56.837 8 56.2011 8.26339 55.7322 8.73223C55.2634 9.20107 55 9.83696 55 10.5C55 11.163 55.2634 11.7989 55.7322 12.2678C56.2011 12.7366 56.837 13 57.5 13H65.5C68 13 70 15 70 17.5V68.5C70 71 68 73 65.5 73H9.5C8.30653 73 7.16193 72.5259 6.31802 71.682C5.4741 70.8381 5 69.6935 5 68.5V17.5C5 15 7 13 9.5 13H17.5C18.1594 12.9906 18.7884 12.721 19.25 12.25C19.721 11.7884 19.9906 11.1594 20 10.5C19.9906 9.84058 19.721 9.21158 19.25 8.75C18.7884 8.27896 18.1594 8.00939 17.5 8H10C7.34784 8 4.8043 9.05357 2.92893 10.9289C1.05357 12.8043 0 15.3478 0 18V68C0 73.5 4.5 78 10 78H65C67.6522 78 70.1957 76.9464 72.0711 75.0711C73.9464 73.1957 75 70.6522 75 68V18C75 15.3478 73.9464 12.8043 72.0711 10.9289C70.1957 9.05357 67.6522 8 65 8" fill="black"/>
</svg>
